<?xml version="1.0" encoding="utf-8"?>
<!-- Generator: Adobe Illustrator 16.0.0, SVG Export Plug-In . SVG Version: 6.00 Build 0)  -->
<!DOCTYPE svg PUBLIC "-//W3C//DTD SVG 1.1//EN" "http://www.w3.org/Graphics/SVG/1.1/DTD/svg11.dtd">
<svg version="1.1" id="Layer_1" xmlns="http://www.w3.org/2000/svg" xmlns:xlink="http://www.w3.org/1999/xlink" x="0px" y="0px"
	 width="135px" height="36px" viewBox="0 0 135 36" enable-background="new 0 0 135 36" xml:space="preserve">
<g>
	<defs>
		<path id="SVGID_1_" d="M26.908,27.428h4.565V16.231h-4.565V27.428z M39.564,13.058c-0.384,0-4.572,0.526-4.572,5.287v9.083h4.565
			v-8.176c0-0.718,0.337-2.407,1.786-2.407h2.583v-3.787H39.564z M89.749,13.058c-0.384,0-4.572,0.526-4.572,5.287v9.083h4.565
			v-8.176c0-0.718,0.336-2.407,1.784-2.407h2.584v-3.787H89.749z M101.477,13.036l-0.369,0.001h-4.194v14.391h4.563V16.841h3.72
			c1.447,0,1.785,1.941,1.785,2.66v7.927h4.564v-9.083c0-4.761-4.188-5.309-4.572-5.309H101.477z M114.065,20.154h-0.006
			c0,0.031,0.002,0.059,0.003,0.086c-0.001,0.03-0.003,0.058-0.003,0.089h0.006c0.097,6.795,5.793,7.119,7.8,7.087v0.012h8.133
			l-0.004-3.551h-7.846c-0.983-0.037-3.725-0.597-3.758-3.637c0.042-3.702,4.067-3.395,4.067-3.395h2.914l-2.64,4.724h4.658
			l2.605-4.724H130v-3.813h-7.829c-0.131-0.004-0.289-0.008-0.471-0.008C119.562,13.024,114.16,13.538,114.065,20.154 M69.88,20.327
			c-0.006-2.241,1.716-4.062,3.844-4.067c2.126-0.005,3.855,1.808,3.861,4.048c0.006,2.243-1.715,4.063-3.842,4.068
			c-0.003,0-0.006,0-0.009,0C71.61,24.377,69.885,22.564,69.88,20.327 M73.72,12.568c-4.639,0.011-8.392,3.453-8.381,7.687
			c0.011,4.235,3.779,7.658,8.417,7.647c4.64-0.011,8.393-3.452,8.381-7.687c-0.01-4.227-3.765-7.647-8.392-7.647
			C73.735,12.568,73.728,12.568,73.72,12.568 M26.908,13.343h4.565V8.678h-4.565V13.343z M46.666,8.678v18.75h8.131v-0.012
			c2.008,0.032,7.704-0.292,7.801-7.087h0.005c0-0.031-0.002-0.059-0.003-0.089c0-0.027,0.003-0.055,0.003-0.086h-0.005
			c-0.112-7.83-7.658-7.118-8.431-7.118v3.798c0,0,4.065-0.296,4.108,3.406c-0.036,3.04-2.776,3.415-3.759,3.449H51.23V8.678H46.666
			z M14.271,8.099h-0.035h-0.065c-7.363,0-8.856,5.146-9.104,8.132l-0.009,0.096c-0.068,0.9-0.067,1.587-0.043,1.857v3.88h11.332
			v-3.774H9.622l0-2.088c0.042-4.558,4.55-4.497,4.55-4.497h0.065h0.035h0.065c0,0,4.507-0.061,4.548,4.497l0,11.226h4.609v-9.244
			c0.023-0.271,0.023-0.958-0.044-1.857l-0.009-0.096c-0.248-2.986-1.741-8.132-9.104-8.132H14.271z"/>
	</defs>
	<clipPath id="SVGID_2_">
		<use xlink:href="#SVGID_1_"  overflow="visible"/>
	</clipPath>
	
		<linearGradient id="SVGID_3_" gradientUnits="userSpaceOnUse" x1="-216.5991" y1="76.0225" x2="-216.3755" y2="76.0225" gradientTransform="matrix(0 -88.6202 -88.6202 0 6804.625 -19167.1875)">
		<stop  offset="0" style="stop-color:#00457D"/>
		<stop  offset="0.1064" style="stop-color:#024A81"/>
		<stop  offset="0.2242" style="stop-color:#09578E"/>
		<stop  offset="0.3475" style="stop-color:#146DA2"/>
		<stop  offset="0.4745" style="stop-color:#248CBF"/>
		<stop  offset="0.6032" style="stop-color:#38B3E4"/>
		<stop  offset="0.6313" style="stop-color:#3DBDED"/>
		<stop  offset="0.8018" style="stop-color:#3AB4E8"/>
		<stop  offset="0.8429" style="stop-color:#39B1E6"/>
		<stop  offset="1" style="stop-color:#39B1E6"/>
	</linearGradient>
	<rect x="4.99" y="8.099" clip-path="url(#SVGID_2_)" fill="url(#SVGID_3_)" width="125.01" height="19.814"/>
</g>
</svg>
